<svg xmlns="http://www.w3.org/2000/svg" xmlns:xlink="http://www.w3.org/1999/xlink" width="500" zoomAndPan="magnify" viewBox="0 0 375 374.999991" height="500" preserveAspectRatio="xMidYMid meet" version="1.0"><defs><clipPath id="f104165903"><path d="M 25 7.148438 L 373 7.148438 L 373 154 L 25 154 Z M 25 7.148438 " clip-rule="nonzero"/></clipPath><clipPath id="e1f7e913cd"><path d="M 8 117 L 336 117 L 336 367.898438 L 8 367.898438 Z M 8 117 " clip-rule="nonzero"/></clipPath></defs><rect x="-37.5" width="450" fill="#ffffff" y="-37.499999" height="449.999989" fill-opacity="1"/><rect x="-37.5" width="450" fill="#ffffff" y="-37.499999" height="449.999989" fill-opacity="1"/><rect x="-37.5" width="450" fill="#ffffff" y="-37.499999" height="449.999989" fill-opacity="1"/><g clip-path="url(#f104165903)"><path fill="#145da0" d="M 74.59375 7.257812 L 25.898438 153.589844 L 103.046875 153.589844 L 127.355469 80.421875 L 348.003906 80.421875 L 372.347656 7.257812 Z M 74.59375 7.257812 " fill-opacity="1" fill-rule="nonzero"/></g><g clip-path="url(#e1f7e913cd)"><path fill="#145da0" d="M 153.449219 117.988281 L 129.101562 191.15625 L 234.046875 191.15625 L 215.003906 248.410156 C 205.738281 276.273438 179.757812 294.984375 150.394531 294.984375 C 128.265625 294.984375 108.132812 284.703125 95.160156 266.757812 C 82.222656 248.808594 78.773438 226.46875 85.785156 205.46875 L 90.546875 191.191406 L 13.726562 191.191406 C 2.863281 232.132812 10.746094 274.820312 35.820312 309.589844 C 62.710938 346.824219 104.464844 368.1875 150.394531 368.1875 C 211.335938 368.1875 265.222656 329.351562 284.445312 271.515625 L 335.503906 117.988281 Z M 153.449219 117.988281 " fill-opacity="1" fill-rule="nonzero"/></g></svg>