<svg xmlns="http://www.w3.org/2000/svg" xmlns:xlink="http://www.w3.org/1999/xlink" width="500" zoomAndPan="magnify" viewBox="0 0 375 374.999991" height="500" preserveAspectRatio="xMidYMid meet" version="1.0"><defs><g/></defs><rect x="-37.5" width="450" fill="#ffffff" y="-37.499999" height="449.999989" fill-opacity="1"/><rect x="-37.5" width="450" fill="#ffffff" y="-37.499999" height="449.999989" fill-opacity="1"/><rect x="-37.5" width="450" fill="#ffffff" y="-37.499999" height="449.999989" fill-opacity="1"/><g fill="#145da0" fill-opacity="1"><g transform="translate(67.417321, 202.592103)"><g><path d="M 20.828125 -13.859375 L 26.828125 -13.859375 L 26.828125 -3.234375 C 25.347656 -2.191406 23.5625 -1.335938 21.46875 -0.671875 C 19.382812 -0.015625 17.394531 0.3125 15.5 0.3125 C 11.34375 0.3125 7.875 -1.015625 5.09375 -3.671875 C 2.320312 -6.335938 0.9375 -9.65625 0.9375 -13.625 C 0.9375 -17.570312 2.363281 -20.867188 5.21875 -23.515625 C 8.070312 -26.160156 11.65625 -27.484375 15.96875 -27.484375 C 17.988281 -27.484375 20 -27.117188 22 -26.390625 C 24 -25.671875 25.695312 -24.6875 27.09375 -23.4375 L 23.203125 -18.734375 C 22.222656 -19.640625 21.082031 -20.359375 19.78125 -20.890625 C 18.476562 -21.421875 17.191406 -21.6875 15.921875 -21.6875 C 13.691406 -21.6875 11.816406 -20.910156 10.296875 -19.359375 C 8.773438 -17.816406 8.015625 -15.90625 8.015625 -13.625 C 8.015625 -11.3125 8.78125 -9.375 10.3125 -7.8125 C 11.84375 -6.257812 13.738281 -5.484375 16 -5.484375 C 17.457031 -5.484375 19.066406 -5.925781 20.828125 -6.8125 Z M 20.828125 -13.859375 "/></g></g></g><g fill="#145da0" fill-opacity="1"><g transform="translate(96.343977, 202.592103)"><g><path d="M 20.828125 -5.015625 L 8.921875 -5.015625 L 6.9375 0 L -0.1875 0 L 11.5625 -27.25 L 18.6875 -27.25 L 30.171875 0 L 22.78125 0 Z M 18.8125 -10.28125 L 14.90625 -20.359375 L 10.9375 -10.28125 Z M 18.8125 -10.28125 "/></g></g></g><g fill="#145da0" fill-opacity="1"><g transform="translate(126.321813, 202.592103)"><g><path d="M 32.671875 0 L 26.5625 0 L 26.515625 -17.71875 L 19.96875 -2.71875 L 15.453125 -2.71875 L 8.921875 -17.71875 L 8.921875 0 L 2.71875 0 L 2.71875 -27.296875 L 10.3125 -27.296875 L 17.71875 -11.0625 L 25.109375 -27.296875 L 32.671875 -27.296875 Z M 32.671875 0 "/></g></g></g><g fill="#145da0" fill-opacity="1"><g transform="translate(161.750162, 202.592103)"><g><path d="M 24.0625 -21.8125 L 9.65625 -21.8125 L 9.65625 -16.390625 L 22.65625 -16.390625 L 22.65625 -10.9375 L 9.65625 -10.9375 L 9.65625 -5.453125 L 24.484375 -5.453125 L 24.484375 0 L 2.71875 0 L 2.71875 -27.25 L 24.0625 -27.25 Z M 24.0625 -21.8125 "/></g></g></g><g fill="#145da0" fill-opacity="1"><g transform="translate(187.990495, 202.592103)"><g><path d="M 2.71875 -27.25 L 15.609375 -27.25 C 18.671875 -27.25 21.101562 -26.632812 22.90625 -25.40625 C 24.71875 -24.175781 25.625 -22.519531 25.625 -20.4375 C 25.625 -19.007812 25.207031 -17.753906 24.375 -16.671875 C 23.539062 -15.597656 22.398438 -14.859375 20.953125 -14.453125 C 22.660156 -14.109375 24.019531 -13.3125 25.03125 -12.0625 C 26.050781 -10.820312 26.5625 -9.316406 26.5625 -7.546875 C 26.5625 -5.242188 25.617188 -3.410156 23.734375 -2.046875 C 21.847656 -0.679688 19.296875 0 16.078125 0 L 2.71875 0 Z M 9.625 -21.953125 L 9.625 -16.359375 L 15.21875 -16.359375 C 16.238281 -16.359375 17.046875 -16.609375 17.640625 -17.109375 C 18.234375 -17.617188 18.53125 -18.316406 18.53125 -19.203125 C 18.53125 -20.054688 18.234375 -20.726562 17.640625 -21.21875 C 17.046875 -21.707031 16.238281 -21.953125 15.21875 -21.953125 Z M 9.625 -11.375 L 9.625 -5.328125 L 15.21875 -5.328125 C 16.519531 -5.328125 17.539062 -5.597656 18.28125 -6.140625 C 19.019531 -6.691406 19.390625 -7.445312 19.390625 -8.40625 C 19.390625 -9.3125 19.019531 -10.03125 18.28125 -10.5625 C 17.539062 -11.101562 16.519531 -11.375 15.21875 -11.375 Z M 9.625 -11.375 "/></g></g></g><g fill="#145da0" fill-opacity="1"><g transform="translate(215.82706, 202.592103)"><g><path d="M 15.65625 -27.484375 C 19.882812 -27.484375 23.398438 -26.164062 26.203125 -23.53125 C 29.003906 -20.894531 30.40625 -17.609375 30.40625 -13.671875 C 30.40625 -9.691406 28.992188 -6.363281 26.171875 -3.6875 C 23.359375 -1.019531 19.847656 0.3125 15.640625 0.3125 C 11.441406 0.3125 7.941406 -1.015625 5.140625 -3.671875 C 2.335938 -6.335938 0.9375 -9.671875 0.9375 -13.671875 C 0.9375 -17.640625 2.335938 -20.929688 5.140625 -23.546875 C 7.941406 -26.171875 11.445312 -27.484375 15.65625 -27.484375 Z M 15.734375 -21.6875 C 13.597656 -21.6875 11.773438 -20.910156 10.265625 -19.359375 C 8.765625 -17.816406 8.015625 -15.90625 8.015625 -13.625 C 8.015625 -11.34375 8.773438 -9.414062 10.296875 -7.84375 C 11.816406 -6.269531 13.628906 -5.484375 15.734375 -5.484375 C 17.835938 -5.484375 19.617188 -6.269531 21.078125 -7.84375 C 22.546875 -9.414062 23.28125 -11.34375 23.28125 -13.625 C 23.28125 -15.90625 22.546875 -17.816406 21.078125 -19.359375 C 19.617188 -20.910156 17.835938 -21.6875 15.734375 -21.6875 Z M 15.734375 -21.6875 "/></g></g></g><g fill="#145da0" fill-opacity="1"><g transform="translate(247.167528, 202.592103)"><g><path d="M 15.65625 -27.484375 C 19.882812 -27.484375 23.398438 -26.164062 26.203125 -23.53125 C 29.003906 -20.894531 30.40625 -17.609375 30.40625 -13.671875 C 30.40625 -9.691406 28.992188 -6.363281 26.171875 -3.6875 C 23.359375 -1.019531 19.847656 0.3125 15.640625 0.3125 C 11.441406 0.3125 7.941406 -1.015625 5.140625 -3.671875 C 2.335938 -6.335938 0.9375 -9.671875 0.9375 -13.671875 C 0.9375 -17.640625 2.335938 -20.929688 5.140625 -23.546875 C 7.941406 -26.171875 11.445312 -27.484375 15.65625 -27.484375 Z M 15.734375 -21.6875 C 13.597656 -21.6875 11.773438 -20.910156 10.265625 -19.359375 C 8.765625 -17.816406 8.015625 -15.90625 8.015625 -13.625 C 8.015625 -11.34375 8.773438 -9.414062 10.296875 -7.84375 C 11.816406 -6.269531 13.628906 -5.484375 15.734375 -5.484375 C 17.835938 -5.484375 19.617188 -6.269531 21.078125 -7.84375 C 22.546875 -9.414062 23.28125 -11.34375 23.28125 -13.625 C 23.28125 -15.90625 22.546875 -17.816406 21.078125 -19.359375 C 19.617188 -20.910156 17.835938 -21.6875 15.734375 -21.6875 Z M 15.734375 -21.6875 "/></g></g></g><g fill="#145da0" fill-opacity="1"><g transform="translate(278.507997, 202.592103)"><g><path d="M 20.484375 0 L 13.28125 -10.703125 L 9.65625 -6.703125 L 9.65625 0 L 2.71875 0 L 2.71875 -27.25 L 9.65625 -27.25 L 9.65625 -15.453125 L 20.09375 -27.25 L 28.109375 -27.25 L 17.984375 -15.96875 L 28.78125 0 Z M 20.484375 0 "/></g></g></g></svg>